<svg width="289" height="79" viewBox="0 0 289 79" fill="none" xmlns="http://www.w3.org/2000/svg">
<g filter="url(#filter0_d_141_9)">
<rect x="14" y="9" width="257" height="47" rx="23.5" fill="#5E79BE"/>
</g>
<path d="M72.5187 26.1501L80.5 39.4877H76.5396L74.8358 35.9164H68.089L66.4534 39.4877H62.5L70.4288 26.1501H72.5187ZM74.018 34.2036L71.3829 28.701L68.8841 34.2036H74.018Z" fill="white"/>
<path d="M99 39.4877H95.0449L90.4789 34.2401H90.2971H87.4348V39.4877H84L85.0042 26.1501H90.3198C91.5011 26.1501 92.5461 26.3201 93.4547 26.6602C94.3786 27.0004 95.0903 27.4802 95.5901 28.0997C96.105 28.707 96.3625 29.4116 96.3625 30.2133C96.3625 31.0757 96.0596 31.8289 95.4538 32.4727C94.8632 33.1165 94.0454 33.5841 93.0004 33.8757L99 39.4877ZM87.4348 27.8446V32.5456H90.0245C91.2058 32.5456 92.1296 32.3391 92.796 31.926C93.4623 31.513 93.7955 30.9421 93.7955 30.2133C93.7955 29.4845 93.4623 28.9075 92.796 28.4823C92.1296 28.0572 91.2058 27.8446 90.0245 27.8446H87.4348Z" fill="white"/>
<path d="M123.56 34.149H121.606C121.515 35.2665 121.44 36.129 121.379 36.7363H123.151V38.2304H121.243L121.22 38.4673C121.129 39.3541 120.864 39.9736 120.425 40.3258C119.986 40.6781 119.244 40.8603 118.199 40.8725C116.912 40.8967 115.73 40.8482 114.655 40.7267L114.246 39.1961C115.427 39.3298 116.525 39.3905 117.54 39.3783C118.1 39.3783 118.494 39.2933 118.721 39.1233C118.948 38.9411 119.092 38.6434 119.153 38.2304H108.885L109.43 34.149H107.817V32.6731H109.635L110.089 29.4662L109.203 30.3044L107.772 29.1018C108.59 28.3608 109.362 27.5348 110.089 26.6238C110.831 25.7128 111.429 24.8382 111.884 24L113.837 24.4009C113.655 24.741 113.428 25.1297 113.156 25.567H122.969V27.0975H112.088C111.785 27.5105 111.391 27.9964 110.907 28.5552H121.902C121.856 29.9278 121.788 31.3005 121.697 32.6731H123.56V34.149ZM107.499 28.2819C106.621 27.6988 105.265 26.8607 103.433 25.7674L104.66 24.4737C105.341 24.8625 106.341 25.4759 107.658 26.314L108.635 26.9153L107.499 28.2819ZM103.66 28.5552L104.819 29.2658C106.167 30.0554 107.143 30.6567 107.749 31.0697L106.568 32.4727C106.008 32.084 105.311 31.6284 104.478 31.1061C103.66 30.5716 102.994 30.1586 102.479 29.8671L103.66 28.5552ZM112.02 30.0675L111.656 32.6731H116.472C115.745 32.1751 114.829 31.6041 113.724 30.9603L114.587 30.0675H112.02ZM119.698 32.6731L119.834 30.0675H115.109C115.2 30.1161 115.337 30.2011 115.518 30.3226C116.548 30.9178 117.267 31.3612 117.676 31.6527L116.654 32.6731H119.698ZM102.888 40.2347C103.13 39.7245 103.6 38.6374 104.296 36.9732C104.993 35.309 105.417 34.2583 105.568 33.821L107.499 34.3494C107.151 35.1876 106.712 36.2626 106.182 37.5745C105.652 38.8742 105.22 39.9493 104.887 40.7996L102.888 40.2347ZM111.429 34.149L111.066 36.7363H115.973C114.988 36.0925 114.087 35.5398 113.269 35.0782L114.201 34.149H111.429ZM119.357 36.7363C119.418 36.129 119.494 35.2665 119.585 34.149H114.632C115.844 34.8414 116.753 35.388 117.358 35.7889L116.381 36.7363H119.357Z" fill="white"/>
<path d="M134.441 24.2915V27.5348H136.872V29.12H134.441V31.9807L136.622 31.4159L136.736 33.0011L134.441 33.5841V38.5766C134.441 39.1718 134.373 39.6152 134.237 39.9068C134.116 40.2104 133.866 40.423 133.487 40.5445C133.124 40.6781 132.563 40.7449 131.806 40.7449C131.246 40.7449 130.685 40.7267 130.125 40.6902L129.716 39.0868C130.383 39.1597 130.966 39.1961 131.465 39.1961C131.874 39.1961 132.139 39.1233 132.26 38.9775C132.382 38.8317 132.442 38.5523 132.442 38.1393V34.0943L130.579 34.5681L129.557 34.8232L129.148 33.2744C129.86 33.1165 130.958 32.8553 132.442 32.4909V29.12H129.444V27.5348H132.442V24.2915H134.441ZM146.072 37.1919C146.572 37.5806 147.132 37.9511 147.753 38.3033C148.389 38.6556 149.124 39.0382 149.957 39.4512L148.798 40.8907C147.147 40.1254 145.784 39.3115 144.709 38.4491C143.573 39.3601 142.286 40.1679 140.847 40.8725L139.711 39.433V40.8725H137.667V25.0204H148.526C148.526 25.3969 148.503 25.9071 148.457 26.5509C148.412 27.1947 148.359 27.7231 148.298 28.1361C148.223 28.6463 148.094 29.0411 147.912 29.3205C147.746 29.5877 147.465 29.7821 147.072 29.9035C146.678 30.0129 146.118 30.0675 145.391 30.0675C144.255 30.0675 143.119 30.0311 141.983 29.9582L141.642 28.4641C142.415 28.5491 143.384 28.6038 144.55 28.6281C145.201 28.6281 145.641 28.5613 145.868 28.4277C146.11 28.2819 146.254 28.045 146.299 27.717C146.375 27.3162 146.413 26.9396 146.413 26.5874H139.711V30.9968H148.775V32.5091C148.2 34.3312 147.299 35.8921 146.072 37.1919ZM139.711 39.3783C141.211 38.6981 142.437 37.9753 143.392 37.2101C142.256 35.9711 141.37 34.4101 140.734 32.5273H139.711V39.3783ZM144.732 35.9711C145.565 35.0357 146.208 33.8878 146.663 32.5273H142.642C143.157 33.9 143.853 35.0479 144.732 35.9711Z" fill="white"/>
<path d="M162.746 34.9507L160.611 33.3108V40.8725H158.634V33.8757C157.817 34.6288 157.052 35.2544 156.34 35.7524L155.409 34.0943C157.635 32.6002 159.467 30.681 160.906 28.3365H156.067V26.7513H159.066C158.809 26.1197 158.453 25.3666 157.998 24.492L159.907 24.0547C160.437 25.2208 160.83 26.1197 161.088 26.7513H163.019V28.3365C162.383 29.4905 161.663 30.5534 160.861 31.5252C161.36 31.8532 162.413 32.5638 164.018 33.657L162.746 34.9507ZM172.969 26.4051H166.426V35.3151H164.404V24.8199H174.99V35.2787H172.969V26.4051ZM176.535 36.6452L176.467 37.7385L176.399 38.6131C176.369 39.1476 176.27 39.5484 176.103 39.8156C175.937 40.095 175.679 40.2894 175.331 40.3987C174.983 40.5202 174.475 40.5991 173.809 40.6356C173.324 40.6599 172.946 40.672 172.673 40.672C172.431 40.672 172.052 40.6599 171.537 40.6356C170.72 40.5991 170.137 40.4352 169.788 40.1436C169.455 39.8521 169.289 39.3419 169.289 38.6131V36.2444C168.743 37.119 167.979 37.9328 166.994 38.686C166.01 39.4391 164.73 40.2104 163.155 41L161.837 39.5788C163.609 38.7528 164.95 37.9753 165.858 37.2465C166.767 36.5177 167.411 35.7038 167.789 34.8049C168.168 33.906 168.41 32.7217 168.516 31.2519C168.546 30.7417 168.569 30.1343 168.584 29.4298C168.599 28.7131 168.607 28.1179 168.607 27.6442H170.629L170.561 31.3794C170.53 32.4362 170.409 33.3716 170.197 34.1854H171.288V37.9753C171.288 38.3762 171.348 38.6434 171.469 38.7771C171.59 38.9107 171.825 38.9896 172.174 39.0139C172.325 39.0261 172.56 39.0322 172.878 39.0322C173.196 39.0322 173.43 39.0261 173.582 39.0139C173.961 38.9896 174.21 38.9168 174.332 38.7953C174.468 38.6738 174.544 38.4126 174.559 38.0118C174.574 37.6595 174.581 37.0886 174.581 36.299L176.535 36.6452Z" fill="white"/>
<path d="M202.114 36.9368C200.388 36.463 198.744 35.8739 197.185 35.1693V40.7631H195.049V34.5316H195.912C194.61 33.8028 193.504 33.0436 192.596 32.254C191.717 33.08 190.566 33.8453 189.143 34.5498H190.211C190.211 34.975 190.188 35.3333 190.142 35.6249C190.052 36.6574 189.62 37.6049 188.848 38.4673C188.075 39.3298 186.788 40.1558 184.986 40.9453L183.759 39.5788C184.819 39.1536 185.644 38.7406 186.235 38.3398C186.826 37.9268 187.25 37.5077 187.507 37.0825C187.765 36.6574 187.924 36.1715 187.984 35.6249L188.03 35.0782C186.47 35.7585 184.781 36.3658 182.964 36.9003L181.942 35.4062C185.41 34.5073 188.151 33.4444 190.165 32.2176H184.304V24.7835H200.706V32.2176H194.89C195.844 32.8614 196.972 33.4384 198.275 33.9486C199.592 34.4466 201.167 34.9203 203 35.3698L202.114 36.9368ZM191.505 27.8264V26.2229H186.44V27.8264H191.505ZM193.504 27.8264H198.57V26.2229H193.504V27.8264ZM191.505 29.1747H186.44V30.7417H191.505V29.1747ZM193.504 29.1747V30.7417H198.57V29.1747H193.504Z" fill="white"/>
<path d="M241 31.2679C242.333 32.0378 242.333 33.9623 241 34.7321L229 41.6603C227.667 42.4301 226 41.4678 226 39.9282L226 26.0718C226 24.5322 227.667 23.5699 229 24.3397L241 31.2679Z" fill="white"/>
<defs>
<filter id="filter0_d_141_9" x="0" y="0" width="289" height="79" filterUnits="userSpaceOnUse" color-interpolation-filters="sRGB">
<feFlood flood-opacity="0" result="BackgroundImageFix"/>
<feColorMatrix in="SourceAlpha" type="matrix" values="0 0 0 0 0 0 0 0 0 0 0 0 0 0 0 0 0 0 127 0" result="hardAlpha"/>
<feOffset dx="2" dy="7"/>
<feGaussianBlur stdDeviation="8"/>
<feComposite in2="hardAlpha" operator="out"/>
<feColorMatrix type="matrix" values="0 0 0 0 0 0 0 0 0 0 0 0 0 0 0 0 0 0 0.2 0"/>
<feBlend mode="normal" in2="BackgroundImageFix" result="effect1_dropShadow_141_9"/>
<feBlend mode="normal" in="SourceGraphic" in2="effect1_dropShadow_141_9" result="shape"/>
</filter>
</defs>
</svg>
